<svg id="visual" viewBox="0 0 900 600" width="900" height="600" xmlns="http://www.w3.org/2000/svg" xmlns:xlink="http://www.w3.org/1999/xlink" version="1.1"><g stroke-width="1" stroke-linejoin="bevel"><path d="M376.7 353L382.7 237L257.1 245Z" fill="#59103f" stroke="#59103f"></path><path d="M257.1 245L259.1 353L376.7 353Z" fill="#8c1438" stroke="#8c1438"></path><path d="M382.7 237L265.1 122L257.1 245Z" fill="#47113c" stroke="#47113c"></path><path d="M382.7 237L378.7 112L265.1 122Z" fill="#7c103d" stroke="#7c103d"></path><path d="M259.1 479L390.7 476L376.7 353Z" fill="#7c103d" stroke="#7c103d"></path><path d="M376.7 353L521.3 234L382.7 237Z" fill="#351138" stroke="#351138"></path><path d="M382.7 237L517.3 122L378.7 112Z" fill="#6b0f3f" stroke="#6b0f3f"></path><path d="M265.1 122L136.6 231L257.1 245Z" fill="#160a28" stroke="#160a28"></path><path d="M257.1 245L124.6 353L259.1 353Z" fill="#240f31" stroke="#240f31"></path><path d="M135.6 472L259.1 479L259.1 353Z" fill="#351138" stroke="#351138"></path><path d="M259.1 353L259.1 479L376.7 353Z" fill="#9a1d32" stroke="#9a1d32"></path><path d="M521.3 365L521.3 234L376.7 353Z" fill="#240f31" stroke="#240f31"></path><path d="M136.6 231L124.6 353L257.1 245Z" fill="#160a28" stroke="#160a28"></path><path d="M390.7 476L521.3 365L376.7 353Z" fill="#a62929" stroke="#a62929"></path><path d="M521.3 234L517.3 122L382.7 237Z" fill="#8c1438" stroke="#8c1438"></path><path d="M124.6 353L135.6 472L259.1 353Z" fill="#9a1d32" stroke="#9a1d32"></path><path d="M508.3 600L514.3 485L390.7 476Z" fill="#240f31" stroke="#240f31"></path><path d="M390.7 476L514.3 485L521.3 365Z" fill="#7c103d" stroke="#7c103d"></path><path d="M265.1 122L119.6 111L136.6 231Z" fill="#351138" stroke="#351138"></path><path d="M136.6 231L0 235L124.6 353Z" fill="#8c1438" stroke="#8c1438"></path><path d="M253.1 0L119.6 111L265.1 122Z" fill="#8c1438" stroke="#8c1438"></path><path d="M519.3 0L383.7 0L378.7 112Z" fill="#59103f" stroke="#59103f"></path><path d="M378.7 112L253.1 0L265.1 122Z" fill="#7c103d" stroke="#7c103d"></path><path d="M383.7 0L253.1 0L378.7 112Z" fill="#6b0f3f" stroke="#6b0f3f"></path><path d="M259.1 479L386.7 600L390.7 476Z" fill="#160a28" stroke="#160a28"></path><path d="M257.1 600L386.7 600L259.1 479Z" fill="#8c1438" stroke="#8c1438"></path><path d="M133.6 600L257.1 600L259.1 479Z" fill="#7c103d" stroke="#7c103d"></path><path d="M119.6 111L0 235L136.6 231Z" fill="#7c103d" stroke="#7c103d"></path><path d="M124.6 353L0 358L135.6 472Z" fill="#9a1d32" stroke="#9a1d32"></path><path d="M521.3 365L646.9 354L521.3 234Z" fill="#240f31" stroke="#240f31"></path><path d="M521.3 234L636.9 120L517.3 122Z" fill="#351138" stroke="#351138"></path><path d="M637.9 479L646.9 354L521.3 365Z" fill="#07001e" stroke="#07001e"></path><path d="M0 235L0 358L124.6 353Z" fill="#8c1438" stroke="#8c1438"></path><path d="M135.6 472L133.6 600L259.1 479Z" fill="#160a28" stroke="#160a28"></path><path d="M646.9 354L648.9 235L521.3 234Z" fill="#8c1438" stroke="#8c1438"></path><path d="M517.3 122L519.3 0L378.7 112Z" fill="#6b0f3f" stroke="#6b0f3f"></path><path d="M253.1 0L131.6 0L119.6 111Z" fill="#a62929" stroke="#a62929"></path><path d="M119.6 111L0 120L0 235Z" fill="#9a1d32" stroke="#9a1d32"></path><path d="M636.9 120L519.3 0L517.3 122Z" fill="#8c1438" stroke="#8c1438"></path><path d="M648.9 235L636.9 120L521.3 234Z" fill="#7c103d" stroke="#7c103d"></path><path d="M386.7 600L508.3 600L390.7 476Z" fill="#6b0f3f" stroke="#6b0f3f"></path><path d="M514.3 485L637.9 479L521.3 365Z" fill="#47113c" stroke="#47113c"></path><path d="M0 487L133.6 600L135.6 472Z" fill="#6b0f3f" stroke="#6b0f3f"></path><path d="M646.9 600L637.9 479L514.3 485Z" fill="#7c103d" stroke="#7c103d"></path><path d="M0 0L0 120L119.6 111Z" fill="#47113c" stroke="#47113c"></path><path d="M0 358L0 487L135.6 472Z" fill="#47113c" stroke="#47113c"></path><path d="M775.4 111L639.9 0L636.9 120Z" fill="#351138" stroke="#351138"></path><path d="M636.9 120L639.9 0L519.3 0Z" fill="#351138" stroke="#351138"></path><path d="M131.6 0L0 0L119.6 111Z" fill="#7c103d" stroke="#7c103d"></path><path d="M0 487L0 600L133.6 600Z" fill="#8c1438" stroke="#8c1438"></path><path d="M508.3 600L646.9 600L514.3 485Z" fill="#351138" stroke="#351138"></path><path d="M774.4 359L775.4 247L646.9 354Z" fill="#6b0f3f" stroke="#6b0f3f"></path><path d="M646.9 354L775.4 247L648.9 235Z" fill="#351138" stroke="#351138"></path><path d="M774.4 359L646.9 354L771.4 474Z" fill="#a62929" stroke="#a62929"></path><path d="M648.9 235L775.4 111L636.9 120Z" fill="#351138" stroke="#351138"></path><path d="M771.4 474L646.9 354L637.9 479Z" fill="#8c1438" stroke="#8c1438"></path><path d="M646.9 600L771.4 474L637.9 479Z" fill="#351138" stroke="#351138"></path><path d="M775.4 247L775.4 111L648.9 235Z" fill="#240f31" stroke="#240f31"></path><path d="M900 0L777.4 0L775.4 111Z" fill="#8c1438" stroke="#8c1438"></path><path d="M775.4 111L777.4 0L639.9 0Z" fill="#47113c" stroke="#47113c"></path><path d="M646.9 600L767.4 600L771.4 474Z" fill="#160a28" stroke="#160a28"></path><path d="M900 367L900 236L775.4 247Z" fill="#07001e" stroke="#07001e"></path><path d="M775.4 247L900 127L775.4 111Z" fill="#a62929" stroke="#a62929"></path><path d="M900 367L775.4 247L774.4 359Z" fill="#160a28" stroke="#160a28"></path><path d="M900 367L774.4 359L771.4 474Z" fill="#9a1d32" stroke="#9a1d32"></path><path d="M900 473L900 367L771.4 474Z" fill="#a62929" stroke="#a62929"></path><path d="M900 236L900 127L775.4 247Z" fill="#07001e" stroke="#07001e"></path><path d="M900 600L900 473L771.4 474Z" fill="#a62929" stroke="#a62929"></path><path d="M900 127L900 0L775.4 111Z" fill="#6b0f3f" stroke="#6b0f3f"></path><path d="M767.4 600L900 600L771.4 474Z" fill="#07001e" stroke="#07001e"></path></g></svg>